<?xml version="1.0" standalone="no"?>
<!DOCTYPE svg PUBLIC "-//W3C//DTD SVG 20010904//EN"
 "http://www.w3.org/TR/2001/REC-SVG-20010904/DTD/svg10.dtd">
<svg version="1.0" xmlns="http://www.w3.org/2000/svg"
 width="952.000000pt" height="952.000000pt" viewBox="0 0 952.000000 952.000000"
 preserveAspectRatio="xMidYMid meet">
<metadata>
Created by potrace 1.11, written by Peter Selinger 2001-2013
</metadata>
<g transform="translate(0.000000,952.000000) scale(0.100000,-0.100000)"
fill="#000000" stroke="none">
<path d="M4538 9515 c-2 -2 -37 -6 -78 -10 -41 -3 -86 -8 -100 -9 -71 -10
-117 -17 -140 -21 -13 -2 -40 -7 -60 -10 -55 -8 -78 -13 -170 -36 -47 -11 -96
-23 -109 -25 -13 -3 -39 -11 -57 -19 -19 -8 -34 -12 -34 -10 0 7 -222 -72
-325 -115 -69 -29 -301 -145 -303 -152 -2 -4 -12 -8 -22 -8 -10 0 -21 -4 -24
-8 -3 -5 -42 -31 -87 -58 -109 -66 -283 -185 -299 -203 -3 -4 -25 -22 -50 -41
-120 -93 -279 -243 -399 -378 -100 -112 -111 -126 -129 -154 -9 -16 -19 -28
-23 -28 -4 0 -20 -20 -36 -45 -15 -25 -31 -45 -35 -45 -5 0 -8 -5 -8 -11 0 -5
-13 -27 -29 -47 -42 -53 -164 -254 -208 -342 -20 -41 -41 -78 -47 -82 -6 -4
-8 -8 -4 -8 3 0 -8 -30 -26 -67 -37 -78 -119 -284 -125 -315 -1 -5 -10 -32
-21 -60 -20 -55 -68 -231 -76 -277 -3 -14 -7 -34 -10 -43 -8 -25 -14 -60 -19
-98 -2 -19 -8 -57 -14 -85 -12 -65 -24 -169 -25 -222 -1 -24 -4 -43 -7 -43 -8
0 -4 -480 4 -530 3 -19 8 -64 11 -100 4 -36 8 -72 11 -80 2 -8 6 -35 9 -60 6
-44 13 -84 21 -125 2 -11 7 -33 10 -50 3 -16 15 -68 26 -115 11 -47 21 -94 23
-105 22 -109 192 -627 251 -760 18 -41 29 -78 27 -87 -1 -5 3 -8 8 -8 6 0 10
-7 10 -15 0 -8 9 -30 20 -50 11 -19 19 -36 19 -38 -1 -5 23 -61 78 -183 32
-71 57 -132 55 -136 -1 -5 2 -8 6 -8 5 0 23 -35 42 -77 18 -43 37 -82 40 -88
4 -5 46 -84 92 -175 80 -156 133 -254 185 -345 13 -22 30 -53 38 -70 9 -16 25
-46 36 -65 12 -19 53 -89 92 -155 38 -66 108 -181 154 -255 46 -74 89 -144 96
-155 7 -11 33 -52 60 -92 26 -40 47 -77 47 -83 0 -5 4 -10 9 -10 5 0 14 -13
21 -30 7 -16 16 -30 21 -30 4 0 11 -9 14 -20 3 -11 12 -26 19 -32 6 -7 23 -31
36 -53 13 -22 29 -45 35 -51 5 -7 22 -31 37 -55 47 -75 53 -84 59 -89 3 -3 25
-34 49 -70 75 -112 184 -265 192 -268 5 -2 8 -7 8 -12 0 -9 119 -174 145 -201
8 -9 15 -21 15 -27 0 -5 3 -12 8 -14 4 -1 39 -46 77 -98 38 -52 73 -99 77
-105 5 -5 53 -68 108 -140 117 -152 202 -262 230 -296 11 -13 23 -29 27 -34
23 -29 209 -262 218 -271 5 -6 24 -28 40 -49 17 -21 35 -43 40 -49 6 -6 30
-36 55 -66 45 -55 93 -111 118 -136 6 -7 12 -17 12 -23 0 -6 4 -11 8 -11 5 0
45 -43 90 -95 l82 -95 27 31 c16 18 48 54 73 82 25 27 51 59 59 71 8 12 18 23
22 26 5 4 82 95 258 305 9 11 52 65 96 120 44 55 82 102 85 105 3 3 17 21 31
40 15 19 35 45 45 58 11 12 28 34 39 48 11 14 25 31 30 37 29 32 366 479 423
560 15 21 32 44 37 50 11 13 86 117 150 207 185 261 225 320 225 329 0 5 6 14
13 18 7 4 24 26 37 48 13 22 26 42 30 45 3 3 34 50 70 105 36 55 68 105 73
110 13 17 50 75 146 230 52 83 104 166 116 185 58 91 155 259 155 269 0 6 4
11 8 11 5 0 15 12 22 28 8 15 31 56 51 92 164 291 319 587 319 608 0 7 5 12
10 12 6 0 10 4 10 9 0 5 23 58 51 117 75 160 105 226 135 296 14 35 39 91 55
126 16 35 29 66 29 70 0 4 17 50 38 102 43 105 75 190 78 205 2 6 25 79 53
164 28 84 53 163 56 175 2 11 15 58 29 104 13 45 24 85 25 87 0 3 1 6 2 8 0 1
3 13 5 27 2 14 11 52 19 85 8 33 17 76 20 95 3 19 10 51 15 70 4 19 11 58 15
85 3 28 8 61 11 75 2 14 6 50 10 80 3 30 8 75 11 100 8 65 8 502 -1 585 -3 39
-11 97 -16 130 -5 33 -12 80 -15 105 -3 25 -15 88 -26 140 -27 126 -25 119
-40 170 -7 25 -14 52 -15 60 -8 42 -95 290 -131 375 -34 80 -136 288 -171 350
-74 130 -197 316 -214 323 -5 2 -8 8 -8 13 0 6 -4 15 -10 22 -5 7 -45 55 -87
107 -128 157 -248 281 -425 437 -115 101 -336 256 -503 353 -97 56 -321 167
-375 185 -3 1 -14 5 -25 10 -124 51 -324 117 -427 140 -40 9 -80 19 -88 22 -8
3 -22 7 -30 8 -8 1 -58 10 -110 19 -106 19 -133 24 -205 32 -27 3 -68 8 -90
10 -47 6 -522 13 -527 9z m412 -1329 c76 -7 111 -13 118 -20 3 -3 -3 -33 -13
-67 -9 -34 -19 -71 -21 -83 -2 -12 -38 -149 -79 -306 -42 -157 -78 -296 -81
-310 -3 -14 -8 -34 -11 -45 -4 -11 -8 -24 -9 -30 -1 -5 -14 -55 -29 -110 -15
-55 -28 -104 -29 -110 -1 -5 -8 -36 -16 -67 -7 -32 -16 -58 -19 -58 -4 0 -58
205 -77 290 0 3 -4 16 -7 30 -27 100 -120 481 -123 505 -3 17 -8 37 -11 45 -3
8 -7 24 -9 35 -4 20 -18 74 -34 130 -5 17 -12 42 -15 58 -13 66 -16 81 -20 88
-8 11 19 18 107 25 46 3 84 7 85 8 5 4 231 -2 293 -8z m-611 -73 c11 -44 52
-203 55 -218 2 -5 7 -28 11 -50 12 -55 12 -55 15 -57 1 -2 3 -10 5 -19 6 -33
86 -355 95 -384 5 -16 12 -48 16 -70 10 -50 11 -54 14 -57 1 -2 3 -10 5 -18 2
-8 8 -35 15 -60 6 -25 15 -63 20 -85 5 -22 29 -121 54 -220 41 -162 44 -185
34 -225 -15 -62 -22 -66 -47 -31 -37 52 -89 32 -76 -28 4 -17 4 -35 0 -41 -11
-18 -86 35 -109 77 -12 21 -24 40 -27 43 -3 3 -20 30 -37 60 -18 30 -38 64
-45 75 -33 54 -63 102 -73 120 -21 38 -49 85 -171 285 -68 111 -123 205 -123
210 0 6 -4 10 -10 10 -5 0 -10 7 -10 15 0 8 -4 15 -10 15 -5 0 -10 4 -10 10 0
5 -36 69 -80 141 -44 73 -80 136 -80 140 0 5 -4 9 -9 9 -5 0 -11 8 -14 18 -4
9 -18 37 -32 61 -14 24 -24 45 -22 48 14 14 210 116 275 143 144 60 148 62
202 74 19 5 41 13 48 18 6 6 12 8 12 5 0 -3 19 1 43 8 58 19 55 19 66 -22z
m1081 -30 c41 -14 99 -36 128 -49 29 -13 57 -24 62 -24 6 0 10 -4 10 -10 0 -6
3 -9 8 -8 15 5 202 -99 202 -113 0 -3 -13 -26 -30 -52 -16 -26 -30 -50 -30
-52 0 -2 -31 -53 -69 -113 -37 -59 -70 -113 -72 -118 -6 -14 -273 -458 -279
-464 -3 -3 -11 -15 -17 -27 -7 -13 -19 -33 -25 -45 -7 -13 -16 -25 -19 -28 -3
-3 -8 -10 -10 -16 -2 -6 -53 -92 -113 -192 -85 -141 -118 -187 -149 -208 -21
-14 -41 -23 -45 -20 -7 8 -4 74 4 88 4 7 3 8 -4 4 -7 -4 -12 -2 -12 5 0 7 -3
9 -7 6 -3 -4 -12 -2 -18 3 -9 7 -20 0 -39 -25 -15 -19 -31 -35 -36 -35 -22 0
-36 136 -16 168 3 4 7 19 10 33 3 13 14 60 26 104 12 44 23 87 25 95 2 8 13
50 24 93 12 42 23 87 25 100 3 12 5 22 6 22 1 0 3 7 5 15 16 60 27 109 31 129
3 14 7 28 10 33 3 4 7 16 9 26 1 9 8 37 15 62 7 25 14 52 15 60 2 8 4 15 5 15
2 0 5 12 13 50 2 11 6 27 9 35 14 39 130 487 129 502 0 15 6 15 72 -3 40 -11
106 -31 147 -46z m-1815 -323 c14 -22 25 -42 25 -45 0 -3 5 -11 10 -18 19 -21
250 -408 250 -418 0 -5 5 -9 10 -9 6 0 10 -4 10 -9 0 -5 22 -45 48 -88 27 -43
55 -89 63 -103 8 -14 16 -27 19 -30 3 -3 11 -16 18 -30 6 -14 36 -63 65 -110
29 -47 63 -103 76 -124 l24 -39 -49 28 c-27 16 -68 41 -92 57 -24 15 -47 28
-53 28 -5 0 -9 5 -9 10 0 6 -6 10 -14 10 -7 0 -19 7 -26 15 -7 8 -16 13 -20
10 -4 -2 -15 4 -25 15 -10 11 -21 20 -26 20 -4 0 -36 18 -70 39 -35 22 -131
80 -214 130 -82 49 -195 118 -250 152 -55 34 -116 70 -135 81 -19 10 -46 27
-59 37 l-24 19 34 43 c74 95 190 215 273 284 27 22 60 50 74 63 14 12 29 22
33 22 5 0 20 -18 34 -40z m2381 15 c13 -14 27 -25 32 -25 13 0 231 -216 278
-275 21 -27 45 -56 52 -63 6 -7 12 -17 12 -22 0 -5 -44 -35 -97 -68 -54 -32
-158 -96 -232 -141 -73 -44 -137 -81 -141 -81 -5 0 -10 -3 -12 -7 -4 -10 -206
-133 -219 -133 -5 0 -9 -4 -9 -8 0 -5 -18 -17 -40 -27 -22 -10 -40 -22 -40
-27 0 -4 -4 -8 -10 -8 -5 0 -64 -34 -130 -75 -66 -41 -120 -72 -120 -69 0 2
27 51 61 107 33 56 66 111 72 122 7 11 27 43 45 71 17 28 32 54 32 56 0 3 27
49 60 101 33 53 60 101 60 106 0 6 4 11 9 11 5 0 11 8 15 18 3 9 26 50 51 90
25 41 45 77 45 82 0 5 3 10 8 12 4 2 27 37 52 78 86 146 122 200 132 200 6 0
21 -11 34 -25z m-2853 -535 c26 -16 52 -30 57 -30 6 0 10 -4 10 -10 0 -5 4
-10 9 -10 8 0 77 -40 215 -125 18 -11 79 -48 137 -83 135 -82 133 -81 198
-122 31 -19 59 -34 62 -33 4 1 15 -7 24 -17 10 -11 22 -20 26 -20 6 0 325
-191 465 -279 35 -22 53 -45 82 -104 2 -4 -19 -5 -47 -3 -47 4 -50 3 -60 -25
-5 -16 -6 -29 -2 -29 10 0 61 -50 61 -59 0 -9 -36 -14 -95 -14 -42 1 -90 7
-90 13 0 2 -12 4 -55 13 -14 3 -72 17 -130 32 -123 31 -174 43 -215 51 -16 3
-38 10 -47 15 -10 5 -18 8 -18 5 0 -3 -15 0 -32 5 -18 6 -44 12 -58 15 -14 3
-33 7 -42 10 -9 3 -25 7 -35 9 -10 2 -164 40 -343 85 -342 86 -349 88 -365 89
-33 3 -34 17 -10 106 14 50 32 108 41 130 9 22 17 47 19 57 7 36 114 252 169
341 14 22 14 22 69 -13z m3340 -15 c12 -22 25 -42 28 -45 24 -21 158 -335 174
-409 2 -9 10 -36 17 -61 26 -84 27 -83 -117 -114 -11 -2 -49 -12 -85 -21 -64
-17 -79 -20 -121 -30 -11 -2 -29 -7 -39 -10 -10 -3 -27 -7 -37 -9 -10 -2 -38
-9 -63 -16 -25 -7 -53 -14 -64 -16 -10 -2 -53 -12 -95 -23 -42 -11 -87 -22
-101 -25 -14 -3 -58 -14 -97 -25 -40 -10 -73 -17 -73 -14 0 2 -6 1 -12 -4 -7
-4 -15 -8 -18 -8 -4 -1 -143 -33 -172 -41 -5 -1 -9 -2 -10 -4 -2 -1 -11 -3
-20 -5 -9 -2 -47 -11 -84 -20 -37 -9 -77 -19 -88 -22 -12 -2 -39 -9 -61 -15
-75 -18 -101 -20 -143 -9 -47 13 -47 28 -3 54 25 15 28 21 22 44 -7 26 -11 28
-59 27 -53 0 -60 4 -41 23 6 6 17 22 23 35 6 12 61 53 121 90 61 37 119 75
130 83 10 8 23 15 27 15 5 0 21 9 36 19 15 11 128 80 252 155 124 74 230 140
237 146 7 5 14 10 17 10 3 0 65 37 138 82 73 45 160 97 193 116 33 20 62 38
65 42 3 4 12 10 20 14 8 4 26 13 40 21 33 19 37 17 63 -30z m-3592 -751 c26
-6 47 -11 99 -23 25 -7 56 -14 70 -17 14 -3 39 -9 55 -14 41 -13 155 -41 182
-45 12 -2 37 -8 55 -14 18 -6 44 -12 58 -15 14 -3 99 -23 190 -46 91 -23 172
-43 180 -45 19 -4 134 -33 185 -47 l40 -11 -30 -8 c-16 -5 -41 -11 -55 -14
-14 -3 -49 -11 -77 -19 -29 -8 -53 -12 -53 -9 0 3 -6 0 -13 -6 -8 -6 -16 -8
-20 -5 -3 3 -15 1 -26 -5 -11 -6 -33 -13 -48 -16 -48 -7 -124 -24 -132 -29 -8
-5 -51 -15 -94 -22 -15 -2 -38 -9 -50 -16 -12 -6 -23 -10 -25 -9 -1 1 -28 -3
-60 -10 -31 -7 -61 -13 -67 -15 -5 -1 -30 -7 -55 -14 -25 -7 -53 -14 -62 -16
-42 -9 -57 -13 -138 -33 -47 -12 -94 -24 -105 -26 -11 -2 -37 -8 -58 -13 -39
-10 -44 -8 -46 28 -1 8 -5 51 -9 95 -12 126 -2 430 14 457 2 3 20 2 40 -4 20
-5 45 -12 55 -14z m3866 -55 c8 -85 8 -371 1 -434 -4 -27 -7 -57 -7 -66 -1
-14 -7 -15 -38 -8 -21 5 -49 12 -63 14 -22 4 -43 8 -90 20 -8 2 -16 4 -17 4
-2 1 -5 1 -8 2 -2 0 -37 10 -77 20 -40 11 -82 22 -93 24 -23 4 -23 4 -165 39
-58 15 -114 29 -125 31 -17 4 -77 18 -125 30 -47 12 -147 37 -160 40 -8 2 -35
8 -60 15 -25 6 -58 13 -73 15 -16 3 -33 7 -38 11 -5 3 -22 8 -36 10 -34 6 -40
12 -22 19 23 8 622 156 654 161 17 3 37 8 45 11 8 3 24 8 34 10 10 2 54 12 96
23 42 11 88 22 101 24 13 3 24 5 24 6 0 7 222 55 228 50 5 -4 11 -36 14 -71z
m-2019 43 c3 -16 -2 -22 -17 -22 -24 0 -35 15 -27 36 9 23 40 13 44 -14z m106
12 c10 -26 7 -34 -13 -34 -26 0 -44 23 -29 38 17 17 35 15 42 -4z m-201 -38
c3 -8 0 -22 -7 -31 -12 -16 -13 -16 -30 0 -13 13 -14 20 -5 31 15 18 35 18 42
0z m301 -3 c4 -9 0 -23 -7 -30 -12 -12 -17 -12 -31 2 -13 13 -14 20 -5 31 16
19 35 18 43 -3z m-374 -88 c0 -18 -14 -27 -34 -19 -16 6 -22 35 -10 47 10 10
44 -12 44 -28z m454 9 c4 -11 -20 -34 -37 -34 -9 0 -16 30 -11 44 6 17 40 10
48 -10z m-499 -95 c8 -24 -9 -41 -32 -32 -17 6 -17 40 0 46 21 9 26 7 32 -14z
m530 5 c19 -20 4 -44 -24 -37 -20 5 -24 34 -7 45 14 10 12 10 31 -8z m-528
-110 c4 -10 -1 -22 -12 -30 -15 -12 -20 -11 -31 4 -9 12 -9 21 -2 29 15 18 37
16 45 -3z m531 4 c8 -8 9 -15 1 -25 -22 -26 -55 -10 -43 21 7 19 25 21 42 4z
m-723 -40 c25 -7 45 -16 45 -20 0 -4 -15 -19 -34 -34 -33 -26 -34 -29 -21 -54
11 -22 19 -26 44 -22 57 8 65 -3 35 -47 -17 -26 -54 -56 -111 -90 -46 -28 -88
-51 -93 -51 -5 0 -10 -4 -12 -8 -1 -4 -106 -70 -233 -146 -126 -76 -269 -161
-317 -190 -47 -30 -92 -56 -100 -60 -14 -7 -32 -18 -95 -58 -23 -16 -44 -28
-47 -28 -2 0 -32 -18 -65 -40 -33 -22 -62 -40 -65 -40 -3 0 -30 -16 -60 -35
-30 -19 -59 -35 -64 -35 -4 0 -18 -9 -30 -20 l-22 -21 -33 53 c-58 91 -167
328 -167 361 0 4 -6 20 -14 35 -15 29 -58 193 -52 199 4 4 232 63 261 67 11 2
45 10 75 18 45 13 363 91 420 103 8 2 118 29 245 60 257 64 262 65 290 70 11
3 38 9 60 15 22 6 50 12 62 13 12 2 25 6 29 10 10 9 16 9 69 -5z m994 -8 c43
-11 88 -23 100 -25 13 -2 30 -6 39 -9 9 -3 28 -7 42 -10 14 -3 124 -30 246
-60 121 -30 232 -57 247 -60 15 -2 30 -7 35 -10 5 -3 19 -7 33 -10 41 -8 122
-27 162 -36 20 -6 56 -15 80 -20 23 -6 51 -12 62 -15 172 -41 337 -84 342 -89
7 -7 -57 -230 -83 -291 -10 -22 -19 -44 -20 -50 -4 -19 -80 -171 -119 -237
-39 -67 -39 -68 -63 -52 -14 9 -52 32 -86 51 -33 20 -68 41 -76 48 -8 7 -35
23 -60 36 -25 13 -47 26 -50 29 -3 3 -42 28 -87 54 -46 26 -86 52 -89 57 -3 5
-10 7 -15 4 -5 -4 -9 -1 -9 4 0 6 -5 11 -11 11 -6 0 -30 14 -54 30 -24 17 -48
30 -54 30 -6 0 -11 3 -11 8 0 4 -10 12 -23 18 -42 22 -83 46 -365 217 -250
153 -286 177 -309 216 l-25 43 51 -3 c49 -4 51 -3 61 26 8 22 8 31 -2 34 -6 2
-23 15 -37 30 l-26 25 45 12 c25 7 46 12 48 13 1 1 38 -8 81 -19z m-759 -59
c8 -16 6 -21 -11 -26 -25 -8 -44 7 -36 29 9 22 34 20 47 -3z m450 -6 c0 -18
-5 -25 -19 -25 -11 0 -23 5 -26 10 -11 18 3 40 25 40 15 0 20 -7 20 -25z
m-381 -90 c-13 -13 -18 -13 -33 -2 -17 13 -17 14 -1 31 16 16 19 16 34 2 14
-14 14 -18 0 -31z m306 26 c4 -9 -2 -21 -12 -29 -15 -11 -20 -10 -30 4 -8 12
-9 21 -3 29 14 17 38 14 45 -4z m-204 -58 c-12 -22 -38 -25 -45 -6 -10 25 12
45 35 32 14 -7 17 -14 10 -26z m104 16 c8 -24 7 -26 -20 -31 -23 -4 -34 30
-13 43 20 13 26 11 33 -12z m-279 -121 c-1 -18 -5 -38 -9 -44 -4 -7 5 -16 22
-24 27 -11 31 -9 64 26 l34 38 13 -52 c11 -46 10 -62 -9 -135 -46 -183 -152
-614 -157 -637 -3 -14 -10 -43 -16 -65 -5 -22 -11 -47 -13 -55 -2 -8 -11 -44
-20 -80 -9 -36 -18 -72 -20 -80 -2 -8 -12 -51 -24 -96 -11 -45 -23 -92 -25
-105 -3 -13 -5 -24 -6 -24 -1 0 -3 -7 -5 -15 -13 -63 -37 -161 -46 -188 -10
-30 -14 -33 -43 -29 -17 3 -44 10 -61 17 -16 6 -32 11 -35 11 -14 -1 -57 13
-67 22 -7 5 -13 7 -13 4 0 -14 -249 96 -361 160 -85 49 -91 20 57 267 73 122
137 226 141 232 15 20 33 49 45 74 7 14 15 27 18 30 3 3 21 32 41 65 328 546
408 672 442 694 45 29 56 27 53 -11z m461 11 c28 -15 50 -40 83 -97 61 -103
79 -133 139 -230 28 -46 51 -85 51 -87 0 -3 17 -31 88 -140 7 -11 18 -31 25
-45 7 -14 29 -51 50 -82 20 -31 37 -60 37 -63 0 -3 5 -11 11 -18 9 -11 87
-138 126 -207 8 -14 23 -38 33 -55 11 -16 30 -47 42 -69 13 -21 28 -46 33 -55
6 -9 31 -50 56 -92 l46 -76 -41 -25 c-116 -74 -298 -156 -436 -198 -92 -29
-88 -28 -124 -35 -16 -3 -33 -8 -37 -10 -5 -4 -104 370 -124 470 -5 24 -23 96
-35 145 -13 46 -31 121 -35 140 -2 8 -13 56 -25 105 -12 50 -24 101 -27 114
-2 14 -6 28 -9 33 -3 5 -8 21 -10 36 -3 15 -23 99 -45 187 -23 88 -43 171 -45
184 -3 14 -7 28 -10 33 -3 5 0 33 7 62 11 49 14 53 30 43 10 -6 22 -21 28 -34
6 -14 18 -22 28 -20 37 6 45 18 40 63 -2 24 -1 44 4 44 4 0 24 -9 46 -21z
m-851 -262 c-25 -41 -46 -79 -46 -85 0 -6 -4 -12 -8 -14 -5 -1 -49 -70 -99
-153 -49 -82 -153 -255 -231 -383 -78 -128 -142 -237 -142 -243 0 -5 -3 -9 -8
-9 -4 0 -18 -20 -32 -44 -26 -49 -30 -49 -85 -2 -16 15 -41 35 -55 47 -78 65
-182 174 -256 266 l-53 67 137 82 c75 46 155 93 176 105 22 12 46 28 54 35 7
8 18 14 23 14 5 0 40 20 79 45 39 25 73 45 77 45 3 0 20 11 37 24 17 13 41 26
54 30 12 4 22 12 22 17 0 5 4 9 9 9 5 0 94 51 198 114 103 63 190 113 192 111
2 -2 -17 -38 -43 -78z m1164 74 c0 -5 8 -11 18 -14 23 -8 76 -40 80 -49 2 -5
8 -8 13 -8 5 0 28 -12 52 -27 122 -77 551 -333 558 -333 5 0 9 -3 9 -8 0 -7
22 -21 73 -44 15 -7 27 -16 27 -20 0 -4 4 -8 9 -8 6 0 30 -13 54 -30 25 -16
47 -30 50 -30 4 0 26 -14 52 -31 l45 -30 -59 -72 c-80 -97 -160 -180 -252
-259 -113 -98 -110 -97 -145 -32 -16 29 -32 54 -36 54 -5 0 -8 4 -8 9 0 6 -26
52 -58 103 -32 51 -61 100 -65 108 -3 8 -47 80 -97 160 -50 80 -93 152 -97
160 -3 8 -17 30 -30 48 -13 17 -21 32 -17 32 4 0 -1 9 -10 19 -19 21 -51 74
-62 104 -3 9 -10 17 -15 17 -5 0 -9 4 -9 9 0 5 -22 46 -50 90 -53 86 -56 91
-40 91 6 0 10 -4 10 -9z m-557 -248 c3 -16 8 -39 11 -53 3 -14 8 -34 11 -45 2
-11 9 -38 15 -60 6 -22 13 -51 16 -65 3 -14 7 -33 10 -42 3 -9 7 -25 9 -35 6
-30 93 -383 112 -453 9 -36 18 -72 19 -80 2 -8 7 -33 13 -55 5 -22 19 -78 30
-125 11 -47 25 -100 31 -119 12 -41 11 -42 -32 -47 -151 -16 -268 -19 -403
-10 -153 10 -157 12 -143 64 17 62 89 354 99 402 5 25 16 68 23 95 16 55 54
207 61 243 2 13 7 32 10 42 3 10 7 27 10 37 2 10 17 74 35 143 41 162 41 163
42 178 2 22 16 12 21 -15z"/>
</g>
</svg>
