<?xml version="1.0" encoding="UTF-8" standalone="no"?>
<svg
   xmlns:dc="http://purl.org/dc/elements/1.1/"
   xmlns:cc="http://creativecommons.org/ns#"
   xmlns:rdf="http://www.w3.org/1999/02/22-rdf-syntax-ns#"
   xmlns:svg="http://www.w3.org/2000/svg"
   xmlns="http://www.w3.org/2000/svg"
   xmlns:sodipodi="http://sodipodi.sourceforge.net/DTD/sodipodi-0.dtd"
   xmlns:inkscape="http://www.inkscape.org/namespaces/inkscape"
   height="119.047"
   viewBox="0 0 83.333097 119.047"
   width="83.333099"
   id="svg4715"
   version="1.1"
   inkscape:version="0.91 r13725"
   sodipodi:docname="http://nearbyke.com/assets/images/logo_no_text.svg"
   style="fill:#000000"
   inkscape:export-filename="/Users/beckers/Google Drive/NearByke/Afbeeldingen/logo_no_text.png"
   inkscape:export-xdpi="90"
   inkscape:export-ydpi="90">
  <metadata
     id="metadata4725">
    <rdf:RDF>
      <cc:Work
         rdf:about="">
        <dc:format>image/svg+xml</dc:format>
        <dc:type
           rdf:resource="http://purl.org/dc/dcmitype/StillImage" />
        <dc:title></dc:title>
      </cc:Work>
    </rdf:RDF>
  </metadata>
  <defs
     id="defs4723">
    <clipPath
       clipPathUnits="userSpaceOnUse"
       id="clipPath4668">
      <circle
         style="opacity:1;fill:none;fill-opacity:1;stroke:#000000;stroke-width:0.91262633;stroke-linecap:square;stroke-linejoin:miter;stroke-miterlimit:4;stroke-dasharray:none;stroke-dashoffset:0;stroke-opacity:1"
         id="circle4670"
         cx="6853.9058"
         cy="-162.03146"
         r="88.981064" />
    </clipPath>
    <clipPath
       clipPathUnits="userSpaceOnUse"
       id="clipPath4668-6">
      <circle
         style="opacity:1;fill:none;fill-opacity:1;stroke:#000000;stroke-width:0.91262633;stroke-linecap:square;stroke-linejoin:miter;stroke-miterlimit:4;stroke-dasharray:none;stroke-dashoffset:0;stroke-opacity:1"
         id="circle4670-6"
         cx="6853.9058"
         cy="-162.03146"
         r="88.981064" />
    </clipPath>
    <clipPath
       clipPathUnits="userSpaceOnUse"
       id="clipPath4668-4">
      <circle
         style="opacity:1;fill:none;fill-opacity:1;stroke:#000000;stroke-width:0.91262633;stroke-linecap:square;stroke-linejoin:miter;stroke-miterlimit:4;stroke-dasharray:none;stroke-dashoffset:0;stroke-opacity:1"
         id="circle4670-9"
         cx="6853.9058"
         cy="-162.03146"
         r="88.981064" />
    </clipPath>
    <clipPath
       clipPathUnits="userSpaceOnUse"
       id="clipPath4668-4-3">
      <circle
         style="opacity:1;fill:none;fill-opacity:1;stroke:#000000;stroke-width:0.91262633;stroke-linecap:square;stroke-linejoin:miter;stroke-miterlimit:4;stroke-dasharray:none;stroke-dashoffset:0;stroke-opacity:1"
         id="circle4670-9-8"
         cx="6853.9058"
         cy="-162.03146"
         r="88.981064" />
    </clipPath>
    <clipPath
       clipPathUnits="userSpaceOnUse"
       id="clipPath4668-5">
      <circle
         style="opacity:1;fill:none;fill-opacity:1;stroke:#000000;stroke-width:0.91262633;stroke-linecap:square;stroke-linejoin:miter;stroke-miterlimit:4;stroke-dasharray:none;stroke-dashoffset:0;stroke-opacity:1"
         id="circle4670-68"
         cx="6853.9058"
         cy="-162.03146"
         r="88.981064" />
    </clipPath>
  </defs>
  <sodipodi:namedview
     pagecolor="#ffffff"
     bordercolor="#666666"
     borderopacity="1"
     objecttolerance="10"
     gridtolerance="10"
     guidetolerance="10"
     inkscape:pageopacity="0"
     inkscape:pageshadow="2"
     inkscape:window-width="1440"
     inkscape:window-height="791"
     id="namedview4721"
     showgrid="false"
     fit-margin-top="0"
     fit-margin-left="0"
     fit-margin-right="0"
     fit-margin-bottom="0"
     inkscape:zoom="5.6568542"
     inkscape:cx="29.054162"
     inkscape:cy="96.273085"
     inkscape:window-x="0"
     inkscape:window-y="1"
     inkscape:window-maximized="1"
     inkscape:current-layer="svg4715"
     inkscape:snap-object-midpoints="true"
     inkscape:snap-center="true"
     inkscape:snap-global="true"
     inkscape:snap-bbox="true"
     inkscape:snap-bbox-edge-midpoints="true"
     inkscape:bbox-nodes="true"
     inkscape:bbox-paths="true"
     inkscape:snap-bbox-midpoints="true"
     inkscape:object-paths="false"
     inkscape:object-nodes="true"
     inkscape:snap-smooth-nodes="true"
     inkscape:snap-intersection-paths="true"
     inkscape:snap-others="true"
     inkscape:snap-nodes="false"
     inkscape:snap-midpoints="true" />
  <path
     style="fill:#00acc1;fill-opacity:1;stroke:none;stroke-width:0.052;stroke-miterlimit:4;stroke-dasharray:none;stroke-opacity:1"
     d="M 41.6666,0 C 18.63096,0 0,18.6308 0,41.6665 c 0,31.2499 41.6666,77.3805 41.6666,77.3805 0,0 41.6665,-46.1306 41.6665,-77.3805 C 83.3331,18.6308 64.7022,0 41.6666,0 Z m 0,14.2856 c 15.1142,0 27.3808,12.2666 27.3808,27.3809 0,15.1142 -12.2666,27.3808 -27.3808,27.3808 -15.11425,0 -27.38093,-12.2666 -27.38093,-27.3808 0,-15.1143 12.26668,-27.3809 27.38093,-27.3809 z"
     id="path4737"
     inkscape:connector-curvature="0" />
  <path
     d="m 41.6829,68.6416 c -14.94993,0 -27.08322,-12.1333 -27.08322,-27.0832 0,-14.9499 12.13329,-27.0832 27.08322,-27.0832 14.95,0 27.0832,12.1333 27.0832,27.0832 0,14.9499 -12.1332,27.0832 -27.0832,27.0832 z"
     id="path4717"
     style="fill:none;fill-opacity:1;stroke:#007c91;stroke-width:4.16664982;stroke-miterlimit:4;stroke-dasharray:none;stroke-opacity:1"
     inkscape:connector-curvature="0" />
  <path
     style="fill:none;fill-rule:evenodd;stroke:#007c91;stroke-width:1.66666019;stroke-linecap:round;stroke-linejoin:miter;stroke-miterlimit:4;stroke-dasharray:none;stroke-opacity:1"
     d="M 42.0522,37.0243 36.56468,14.7608"
     id="path4351"
     inkscape:connector-curvature="0"
     sodipodi:nodetypes="cc" />
  <path
     sodipodi:nodetypes="cc"
     inkscape:connector-curvature="0"
     id="path3459"
     d="M 41.21109,37.0039 47.0083,14.8118"
     style="fill:none;fill-rule:evenodd;stroke:#007c91;stroke-width:1.66666019;stroke-linecap:round;stroke-linejoin:miter;stroke-miterlimit:4;stroke-dasharray:none;stroke-opacity:1" />
  <path
     sodipodi:nodetypes="cc"
     inkscape:connector-curvature="0"
     id="path3461"
     d="M 44.6266,38.0888 64.2408,26.1724"
     style="fill:none;fill-rule:evenodd;stroke:#007c91;stroke-width:1.66666019;stroke-linecap:round;stroke-linejoin:miter;stroke-miterlimit:4;stroke-dasharray:none;stroke-opacity:1" />
  <path
     style="fill:none;fill-rule:evenodd;stroke:#007c91;stroke-width:1.66666019;stroke-linecap:round;stroke-linejoin:miter;stroke-miterlimit:4;stroke-dasharray:none;stroke-opacity:1"
     d="M 45.1468,38.6171 56.9866,18.9735"
     id="path3463"
     inkscape:connector-curvature="0"
     sodipodi:nodetypes="cc" />
  <path
     style="fill:none;fill-rule:evenodd;stroke:#007c91;stroke-width:1.66666019;stroke-linecap:round;stroke-linejoin:miter;stroke-miterlimit:4;stroke-dasharray:none;stroke-opacity:1"
     d="m 46.2171,41.1864 22.3772,5.466"
     id="path3465"
     inkscape:connector-curvature="0"
     sodipodi:nodetypes="cc" />
  <path
     sodipodi:nodetypes="cc"
     inkscape:connector-curvature="0"
     id="path3467"
     d="M 68.539,36.3874 46.2171,41.9257"
     style="fill:none;fill-rule:evenodd;stroke:#007c91;stroke-width:1.66666019;stroke-linecap:round;stroke-linejoin:miter;stroke-miterlimit:4;stroke-dasharray:none;stroke-opacity:1" />
  <path
     style="fill:none;fill-rule:evenodd;stroke:#007c91;stroke-width:1.66666019;stroke-linecap:round;stroke-linejoin:miter;stroke-miterlimit:4;stroke-dasharray:none;stroke-opacity:1"
     d="M 57.1254,64.265 45.1516,44.5026"
     id="path3471"
     inkscape:connector-curvature="0"
     sodipodi:nodetypes="cc" />
  <path
     sodipodi:nodetypes="cc"
     inkscape:connector-curvature="0"
     id="path3473"
     d="M 64.3842,56.9503 44.6283,45.025"
     style="fill:none;fill-rule:evenodd;stroke:#007c91;stroke-width:1.66666019;stroke-linecap:round;stroke-linejoin:miter;stroke-miterlimit:4;stroke-dasharray:none;stroke-opacity:1" />
  <path
     style="fill:none;fill-rule:evenodd;stroke:#007c91;stroke-width:1.66666019;stroke-linecap:round;stroke-linejoin:miter;stroke-miterlimit:4;stroke-dasharray:none;stroke-opacity:1"
     d="M 36.50694,68.5611 42.0522,46.0921"
     id="path3475"
     inkscape:connector-curvature="0"
     sodipodi:nodetypes="cc" />
  <path
     sodipodi:nodetypes="cc"
     inkscape:connector-curvature="0"
     id="path3477"
     d="M 46.8302,68.5605 41.31228,46.0928"
     style="fill:none;fill-rule:evenodd;stroke:#007c91;stroke-width:1.66666019;stroke-linecap:round;stroke-linejoin:miter;stroke-miterlimit:4;stroke-dasharray:none;stroke-opacity:1" />
  <path
     style="fill:none;fill-rule:evenodd;stroke:#007c91;stroke-width:1.66666019;stroke-linecap:round;stroke-linejoin:miter;stroke-miterlimit:4;stroke-dasharray:none;stroke-opacity:1"
     d="M 18.95106,56.952 38.73729,45.0244"
     id="path3479"
     inkscape:connector-curvature="0"
     sodipodi:nodetypes="cc" />
  <path
     sodipodi:nodetypes="cc"
     inkscape:connector-curvature="0"
     id="path3481"
     d="M 26.20877,64.265 38.21348,44.5018"
     style="fill:none;fill-rule:evenodd;stroke:#007c91;stroke-width:1.66666019;stroke-linecap:round;stroke-linejoin:miter;stroke-miterlimit:4;stroke-dasharray:none;stroke-opacity:1" />
  <path
     style="fill:none;fill-rule:evenodd;stroke:#007c91;stroke-width:1.66666019;stroke-linecap:round;stroke-linejoin:miter;stroke-miterlimit:4;stroke-dasharray:none;stroke-opacity:1"
     d="M 14.74036,46.6544 37.14861,41.1862"
     id="path3479-3"
     inkscape:connector-curvature="0"
     sodipodi:nodetypes="cc" />
  <path
     style="fill:none;fill-rule:evenodd;stroke:#007c91;stroke-width:1.66666019;stroke-linecap:round;stroke-linejoin:miter;stroke-miterlimit:4;stroke-dasharray:none;stroke-opacity:1"
     d="m 14.79512,36.3873 22.35289,5.5386"
     id="path3479-5"
     inkscape:connector-curvature="0"
     sodipodi:nodetypes="cc" />
  <path
     style="fill:none;fill-rule:evenodd;stroke:#007c91;stroke-width:1.66666019;stroke-linecap:round;stroke-linejoin:miter;stroke-miterlimit:4;stroke-dasharray:none;stroke-opacity:1"
     d="m 26.34746,18.9735 11.8684,19.6398"
     id="path3479-5-7"
     inkscape:connector-curvature="0"
     sodipodi:nodetypes="cc" />
  <path
     style="fill:none;fill-rule:evenodd;stroke:#007c91;stroke-width:1.66666019;stroke-linecap:round;stroke-linejoin:miter;stroke-miterlimit:4;stroke-dasharray:none;stroke-opacity:1"
     d="M 19.09332,26.1724 38.73908,38.0895"
     id="path3479-5-2"
     inkscape:connector-curvature="0"
     sodipodi:nodetypes="cc" />
  <path
     inkscape:connector-curvature="0"
     d=""
     cx="1062.5402"
     cy="-7.2132406"
     r="5.0289431"
     id="path4279"
     style="opacity:1;fill:none;fill-opacity:1;stroke:#007c91;stroke-width:2.08332491;stroke-linecap:round;stroke-linejoin:miter;stroke-miterlimit:4;stroke-dasharray:none;stroke-dashoffset:0;stroke-opacity:1" />
  <path
     d="M 6.4547348,41.567313 A 35.237049,35.237049 0 0 1 41.691785,6.330265"
     sodipodi:open="true"
     sodipodi:end="4.712389"
     sodipodi:start="3.1415927"
     sodipodi:ry="35.237049"
     sodipodi:rx="35.237049"
     sodipodi:cy="41.567314"
     sodipodi:cx="41.691784"
     sodipodi:type="arc"
     id="path4283"
     style="opacity:1;fill:none;fill-opacity:1;stroke:#ffffff;stroke-width:3.73236084;stroke-linecap:round;stroke-linejoin:miter;stroke-miterlimit:4;stroke-dasharray:none;stroke-dashoffset:0;stroke-opacity:1" />
  <path
     style="opacity:1;fill:#007c91;fill-opacity:1;stroke:none;stroke-width:10;stroke-linecap:butt;stroke-linejoin:miter;stroke-miterlimit:4;stroke-dasharray:none;stroke-dashoffset:0;stroke-opacity:1"
     clip-path="url(#clipPath4668-4-3)"
     d="m 4580.0645,26.628906 0,608.617184 608.621,0 0,-608.617184 -608.621,0 z m 304.3105,92.671874 a 51.790783,51.790787 0 0 1 51.791,51.78906 51.790783,51.790787 0 0 1 -51.791,51.79102 51.790783,51.790787 0 0 1 -51.7891,-51.79102 51.790783,51.790787 0 0 1 51.7891,-51.78906 z m -113.0293,46.81641 a 51.790783,51.790787 0 0 1 51.791,51.79101 51.790783,51.790787 0 0 1 -51.791,51.78907 51.790783,51.790787 0 0 1 -51.791,-51.78907 51.790783,51.790787 0 0 1 51.791,-51.79101 z m 226.0605,0 a 51.790783,51.790787 0 0 1 51.7911,51.79101 51.790783,51.790787 0 0 1 -51.7911,51.78907 51.790783,51.790787 0 0 1 -51.791,-51.78907 51.790783,51.790787 0 0 1 51.791,-51.79101 z m -128.7578,76.50586 a 8.1973095,8.1973095 0 0 1 1.3887,0.15429 8.1973095,8.1973095 0 0 1 6.4414,9.63868 8.1973095,8.1973095 0 0 1 -9.6387,6.4414 8.1973095,8.1973095 0 0 1 -6.4414,-9.63867 8.1973095,8.1973095 0 0 1 8.25,-6.5957 z m -144.1211,36.52539 a 51.790783,51.790787 0 0 1 51.7911,51.78906 51.790783,51.790787 0 0 1 -51.7911,51.79102 51.790783,51.790787 0 0 1 -51.789,-51.79102 51.790783,51.790787 0 0 1 51.789,-51.78906 z m 319.6954,0 a 51.790783,51.790787 0 0 1 51.791,51.78906 51.790783,51.790787 0 0 1 -51.791,51.79102 51.790783,51.790787 0 0 1 -51.7891,-51.79102 51.790783,51.790787 0 0 1 51.7891,-51.78906 z m -272.877,113.02539 a 51.790783,51.790787 0 0 1 51.791,51.79492 51.790783,51.790787 0 0 1 -51.791,51.78906 51.790783,51.790787 0 0 1 -51.791,-51.78906 51.790783,51.790787 0 0 1 51.791,-51.79492 z m 226.0605,0 a 51.790783,51.790787 0 0 1 51.7911,51.79492 51.790783,51.790787 0 0 1 -51.7911,51.78906 51.790783,51.790787 0 0 1 -51.791,-51.78906 51.790783,51.790787 0 0 1 51.791,-51.79492 z m -113.0312,46.82031 a 51.790783,51.790787 0 0 1 51.791,51.79102 51.790783,51.790787 0 0 1 -51.791,51.79101 51.790783,51.790787 0 0 1 -51.7891,-51.79101 51.790783,51.790787 0 0 1 51.7891,-51.79102 z"
     id="rect4560-0-5"
     inkscape:connector-curvature="0"
     transform="matrix(0.0416665,0,0,0.0416665,-222.33173,-16.5473)" />
  <path
     transform="matrix(0.06831071,0,0,0.06831071,-426.51221,52.6269)"
     inkscape:connector-curvature="0"
     style="opacity:1;fill:#007c91;fill-opacity:1;stroke:none;stroke-width:10;stroke-linecap:butt;stroke-linejoin:miter;stroke-miterlimit:4;stroke-dasharray:none;stroke-dashoffset:0;stroke-opacity:1"
     clip-path="url(#clipPath4668-5)"
     d="m 6668.2891,-347.64648 0,371.230464 371.2324,0 0,-371.230464 -371.2324,0 z m 185.6171,56.52539 a 31.590111,31.590113 0 0 1 31.5899,31.58984 31.590111,31.590113 0 0 1 -31.5899,31.58984 31.590111,31.590113 0 0 1 -31.5898,-31.58984 31.590111,31.590113 0 0 1 31.5898,-31.58984 z m -68.9433,28.55664 a 31.590111,31.590113 0 0 1 31.5898,31.58984 31.590111,31.590113 0 0 1 -31.5898,31.58984 31.590111,31.590113 0 0 1 -31.5899,-31.58984 31.590111,31.590113 0 0 1 31.5899,-31.58984 z m 137.8867,0 a 31.590111,31.590113 0 0 1 31.5899,31.58984 31.590111,31.590113 0 0 1 -31.5899,31.58984 31.590111,31.590113 0 0 1 -31.5898,-31.58984 31.590111,31.590113 0 0 1 31.5898,-31.58984 z m -78.5371,46.66406 a 5,5 0 0 1 0.8477,0.0957 5,5 0 0 1 3.9296,5.87891 5,5 0 0 1 -5.8808,3.92773 5,5 0 0 1 -3.9278,-5.8789 5,5 0 0 1 5.0313,-4.02344 z m 19.4414,0 a 5,5 0 0 1 0.8477,0.0957 5,5 0 0 1 3.9296,5.87891 5,5 0 0 1 -5.8808,3.92773 5,5 0 0 1 -3.9277,-5.8789 5,5 0 0 1 5.0312,-4.02344 z m 17.9629,7.43945 a 5,5 0 0 1 0.8477,0.0957 5,5 0 0 1 3.9277,5.8789 5,5 0 0 1 -5.8789,3.92774 5,5 0 0 1 -3.9278,-5.87891 5,5 0 0 1 5.0313,-4.02344 z m -55.3652,0.002 a 5,5 0 0 1 0.8476,0.0937 5,5 0 0 1 3.9278,5.8789 5,5 0 0 1 -5.879,3.92969 5,5 0 0 1 -3.9277,-5.88086 5,5 0 0 1 5.0313,-4.02148 z m -13.7481,13.74609 a 5,5 0 0 1 0.8477,0.0957 5,5 0 0 1 3.9297,5.87891 5,5 0 0 1 -5.8809,3.92773 5,5 0 0 1 -3.9277,-5.8789 5,5 0 0 1 5.0312,-4.02344 z m 82.8594,0 a 5,5 0 0 1 0.8477,0.0937 5,5 0 0 1 3.9277,5.88086 5,5 0 0 1 -5.8789,3.92773 5,5 0 0 1 -3.9297,-5.8789 5,5 0 0 1 5.0313,-4.02344 z m -139.0567,1.0918 a 31.590111,31.590113 0 0 1 31.5899,31.58984 31.590111,31.590113 0 0 1 -31.5899,31.58984 31.590111,31.590113 0 0 1 -31.5898,-31.58984 31.590111,31.590113 0 0 1 31.5898,-31.58984 z m 195,0 a 31.590111,31.590113 0 0 1 31.5899,31.58984 31.590111,31.590113 0 0 1 -31.5899,31.58984 31.590111,31.590113 0 0 1 -31.5898,-31.58984 31.590111,31.590113 0 0 1 31.5898,-31.58984 z M 6805.1641,-176.75 a 5,5 0 0 1 0.8476,0.0937 5,5 0 0 1 3.9278,5.87891 5,5 0 0 1 -5.879,3.92968 5,5 0 0 1 -3.9277,-5.88086 5,5 0 0 1 5.0313,-4.02148 z m 97.7402,0 a 5,5 0 0 1 0.8477,0.0937 5,5 0 0 1 3.9277,5.87891 5,5 0 0 1 -5.8789,3.92968 5,5 0 0 1 -3.9278,-5.88086 5,5 0 0 1 5.0313,-4.02148 z m -97.7402,19.44141 a 5,5 0 0 1 0.8476,0.0937 5,5 0 0 1 3.9278,5.88086 5,5 0 0 1 -5.879,3.92773 5,5 0 0 1 -3.9277,-5.87891 5,5 0 0 1 5.0313,-4.02343 z m 97.7402,0 a 5,5 0 0 1 0.8477,0.0937 5,5 0 0 1 3.9277,5.8789 5,5 0 0 1 -5.8789,3.92969 5,5 0 0 1 -3.9278,-5.87891 5,5 0 0 1 5.0313,-4.02343 z m -90.3008,17.96093 a 5,5 0 0 1 0.8477,0.0957 5,5 0 0 1 3.9277,5.8789 5,5 0 0 1 -5.8789,3.92774 5,5 0 0 1 -3.9277,-5.87891 5,5 0 0 1 5.0312,-4.02344 z m 82.8594,0 a 5,5 0 0 1 0.8477,0.0957 5,5 0 0 1 3.9277,5.8789 5,5 0 0 1 -5.8789,3.92774 5,5 0 0 1 -3.9297,-5.87891 5,5 0 0 1 5.0313,-4.02344 z m -69.1113,13.74805 a 5,5 0 0 1 0.8476,0.0937 5,5 0 0 1 3.9278,5.88086 5,5 0 0 1 -5.879,3.92773 5,5 0 0 1 -3.9277,-5.8789 5,5 0 0 1 5.0313,-4.02344 z m 55.3652,0 a 5,5 0 0 1 0.8477,0.0937 5,5 0 0 1 3.9277,5.88086 5,5 0 0 1 -5.8789,3.92773 5,5 0 0 1 -3.9278,-5.8789 5,5 0 0 1 5.0313,-4.02344 z m -96.7539,0.91992 a 31.590111,31.590113 0 0 1 31.5898,31.591799 31.590111,31.590113 0 0 1 -31.5898,31.589844 31.590111,31.590113 0 0 1 -31.5899,-31.589844 31.590111,31.590113 0 0 1 31.5899,-31.591799 z m 137.8867,0 a 31.590111,31.590113 0 0 1 31.5899,31.591799 31.590111,31.590113 0 0 1 -31.5899,31.589844 31.590111,31.590113 0 0 1 -31.5898,-31.589844 31.590111,31.590113 0 0 1 31.5898,-31.591799 z m -78.5371,6.51953 a 5,5 0 0 1 0.8477,0.0957 5,5 0 0 1 3.9277,5.8789 5,5 0 0 1 -5.8789,3.92774 5,5 0 0 1 -3.9278,-5.87891 5,5 0 0 1 5.0313,-4.02344 z m 19.4414,0 a 5,5 0 0 1 0.8476,0.0957 5,5 0 0 1 3.9277,5.8789 5,5 0 0 1 -5.8789,3.92774 5,5 0 0 1 -3.9296,-5.87891 5,5 0 0 1 5.0312,-4.02344 z m -9.8477,22.039066 a 31.590111,31.590113 0 0 1 31.5899,31.589844 31.590111,31.590113 0 0 1 -31.5899,31.589844 31.590111,31.590113 0 0 1 -31.5898,-31.589844 31.590111,31.590113 0 0 1 31.5898,-31.589844 z"
     id="rect4560-3" />
</svg>
